<svg width="24" height="24" viewBox="0 0 24 24" fill="none" xmlns="http://www.w3.org/2000/svg">
<path d="M17.0611 17.8369L12.0001 12.7769L6.94006 17.8369C6.88911 17.8884 6.82845 17.9291 6.7616 17.957C6.69474 17.9849 6.62304 17.9995 6.5506 17.9995C6.47816 17.9995 6.40639 17.9849 6.33954 17.957C6.27268 17.9291 6.21203 17.8884 6.16107 17.8369C6.11 17.7859 6.06951 17.7254 6.04187 17.6587C6.01423 17.592 6 17.5209 6 17.4487C6 17.3766 6.01423 17.3049 6.04187 17.2383C6.06951 17.1716 6.11 17.111 6.16107 17.0601L11.2211 11.999L6.16107 6.93994C6.05805 6.83649 6.00024 6.69629 6.00024 6.55029C6.00024 6.4043 6.05805 6.26459 6.16107 6.16113C6.26439 6.05787 6.40452 5.99951 6.5506 5.99951C6.69668 5.99951 6.83674 6.05787 6.94006 6.16113L11.9991 11.2212L17.0581 6.16113C17.1614 6.05787 17.3015 5.99951 17.4476 5.99951C17.5936 5.99951 17.7338 6.05787 17.8371 6.16113C17.8883 6.21223 17.929 6.27301 17.9567 6.33984C17.9845 6.40668 17.9988 6.47793 17.9988 6.55029C17.9988 6.62266 17.9845 6.69439 17.9567 6.76123C17.929 6.82807 17.8883 6.88885 17.8371 6.93994L12.7771 11.999L17.8371 17.0601C17.8882 17.111 17.9287 17.1716 17.9563 17.2383C17.9839 17.3049 17.9982 17.3766 17.9982 17.4487C17.9982 17.5209 17.9839 17.592 17.9563 17.6587C17.9287 17.7254 17.8882 17.7859 17.8371 17.8369C17.7861 17.8886 17.7254 17.9295 17.6584 17.9575C17.5915 17.9855 17.5196 18 17.4471 18C17.3751 17.9998 17.304 17.9855 17.2377 17.9575C17.1715 17.9295 17.1114 17.8883 17.0611 17.8369Z" fill="#1F212B"/>
</svg>
