<svg width="24" height="24" viewBox="0 0 24 24" fill="none" xmlns="http://www.w3.org/2000/svg">
<path d="M11.9994 22.1252C11.8346 22.125 11.676 22.0625 11.5554 21.9502L9.92739 20.4362C4.62739 15.5362 1.13439 12.2932 1.13439 8.03621C1.11818 6.84207 1.43047 5.66643 2.03714 4.63774C2.64381 3.60905 3.52152 2.76687 4.57439 2.20321C5.45016 1.73421 6.42999 1.49347 7.42339 1.50321H7.54539C9.18975 1.51582 10.7733 2.1265 12.0004 3.22121C13.2286 2.127 14.8125 1.51643 16.4574 1.50321C17.7464 1.49705 19.007 1.88174 20.073 2.60654C21.1389 3.33135 21.9602 4.36222 22.4284 5.56321C22.7299 6.31323 22.8785 7.11596 22.8654 7.92422V8.03621C22.8654 12.2822 19.3834 15.5132 14.1134 20.4022L12.4414 21.9452C12.3227 22.0598 12.1644 22.1242 11.9994 22.1252ZM7.54139 2.46921H7.42239C6.58586 2.45978 5.76044 2.66131 5.02239 3.05521C4.12134 3.5352 3.36981 4.25397 2.85016 5.13274C2.33052 6.01152 2.06282 7.01638 2.07639 8.03721C2.07639 11.8682 5.45039 14.9932 10.5574 19.7232L12.0014 21.0642L13.4814 19.6982C18.5654 14.9792 21.9254 11.8632 21.9254 8.04221V7.93021C21.9382 7.25252 21.8158 6.57906 21.5654 5.94921C21.1659 4.92217 20.4649 4.04008 19.5546 3.41895C18.6444 2.79781 17.5674 2.46672 16.4654 2.46921C14.9656 2.48231 13.5279 3.06998 12.4484 4.11121C12.3301 4.22683 12.1713 4.29157 12.0059 4.29157C11.8405 4.29157 11.6817 4.22683 11.5634 4.11121C10.483 3.06749 9.04256 2.47923 7.54039 2.46821L7.54139 2.46921Z" fill="white"/>
</svg>
