<svg width="24" height="24" viewBox="0 0 24 24" fill="none" xmlns="http://www.w3.org/2000/svg">
<g clip-path="url(#clip0_965_2540)">
<path d="M3.15198 14.5138L7.63298 18.8578C7.72832 18.9506 7.85664 19.0017 7.9897 19C8.12275 18.9982 8.24965 18.9436 8.34248 18.8483C8.4353 18.7529 8.48645 18.6246 8.48467 18.4915C8.48289 18.3585 8.42832 18.2316 8.33298 18.1388L4.73598 14.6558L16.499 14.6558C17.8317 14.637 19.1035 14.0945 20.0393 13.1454C20.9751 12.1964 21.4998 10.9171 21.4998 9.58426C21.4998 8.25142 20.9751 6.97214 20.0393 6.02308C19.1035 5.07403 17.8317 4.53148 16.499 4.51276L11.469 4.51276C11.3364 4.51276 11.2092 4.56544 11.1154 4.65921C11.0217 4.75298 10.969 4.88015 10.969 5.01276C10.969 5.14537 11.0217 5.27255 11.1154 5.36632C11.2092 5.46008 11.3364 5.51276 11.469 5.51276L16.499 5.51276C17.5788 5.51276 18.6144 5.94172 19.378 6.70528C20.1415 7.46883 20.5705 8.50443 20.5705 9.58426C20.5705 10.6641 20.1415 11.6997 19.378 12.4632C18.6144 13.2268 17.5788 13.6558 16.499 13.6558L4.73498 13.6558L8.32798 10.1728C8.42319 10.0799 8.47763 9.95309 8.47932 9.82013C8.48101 9.68716 8.4298 9.55898 8.33698 9.46376C8.24415 9.36855 8.11731 9.31411 7.98434 9.31242C7.85138 9.31074 7.72319 9.36194 7.62798 9.45476L3.15198 13.7978C3.1039 13.8444 3.06567 13.9002 3.03956 13.9618C3.01345 14.0235 3 14.0898 3 14.1568C3 14.2237 3.01345 14.29 3.03956 14.3517C3.06567 14.4134 3.1039 14.4692 3.15198 14.5158L3.15198 14.5138Z" fill="#1F212B"/>
</g>
<defs>
<clipPath id="clip0_965_2540">
<rect width="24" height="24" fill="white"/>
</clipPath>
</defs>
</svg>
