<svg width="24" height="24" viewBox="0 0 24 24" fill="none" xmlns="http://www.w3.org/2000/svg">
<path d="M11.001 21.4999C10.6876 21.4985 10.3825 21.3989 10.1285 21.2152C9.87454 21.0316 9.68445 20.7732 9.58499 20.476H3.00101C2.60017 20.4723 2.21714 20.3095 1.93595 20.0238C1.65475 19.7381 1.49835 19.3529 1.50101 18.952V5.63172C1.49835 5.23086 1.65475 4.84563 1.93595 4.55994C2.21714 4.27425 2.60017 4.11149 3.00101 4.10779H3.55802C3.58383 3.78404 3.71446 3.47762 3.93009 3.23474C4.14572 2.99187 4.4346 2.82606 4.75302 2.76209C6.91879 2.41394 9.12626 2.41394 11.292 2.76209C11.3724 2.88213 11.481 2.98018 11.6084 3.04822C11.7358 3.11626 11.8781 3.15223 12.0225 3.15223C12.1669 3.15223 12.3091 3.11626 12.4366 3.04822C12.564 2.98018 12.6727 2.88213 12.753 2.76209C14.9185 2.41464 17.1255 2.41464 19.291 2.76209C19.6099 2.82601 19.8994 2.99148 20.1159 3.23426C20.3323 3.47703 20.464 3.78367 20.491 4.10779H21.004C21.4049 4.11123 21.7881 4.2737 22.0694 4.55945C22.3506 4.8452 22.5069 5.23079 22.504 5.63172V18.952C22.5069 19.353 22.3506 19.7385 22.0694 20.0243C21.7881 20.31 21.4049 20.4725 21.004 20.476H14.421C14.3204 20.7733 14.1295 21.0316 13.875 21.2152C13.6204 21.3988 13.3149 21.4983 13.001 21.4999H11.001ZM2.50101 5.63172V18.952C2.49832 19.0876 2.54941 19.2188 2.6431 19.3168C2.73679 19.4148 2.86547 19.4716 3.00101 19.475H10.001C10.1336 19.475 10.2608 19.5277 10.3546 19.6215C10.4484 19.7152 10.501 19.8424 10.501 19.975C10.4978 20.1109 10.5486 20.2423 10.6424 20.3407C10.7361 20.4391 10.8651 20.4965 11.001 20.4999H13.001C13.1368 20.4962 13.2657 20.4391 13.3593 20.3407C13.453 20.2423 13.504 20.1108 13.501 19.975C13.501 19.8424 13.5537 19.7152 13.6474 19.6215C13.7412 19.5277 13.8684 19.475 14.001 19.475H21.001C21.1366 19.4718 21.2655 19.4148 21.3592 19.3168C21.453 19.2187 21.504 19.0877 21.501 18.952V5.63172C21.5042 5.49582 21.4534 5.36443 21.3597 5.26599C21.2659 5.16756 21.1369 5.11022 21.001 5.10682H20.522V17.432C20.5263 17.6261 20.489 17.8185 20.4128 17.997C20.3366 18.1754 20.2231 18.3356 20.08 18.4667C19.9555 18.5765 19.8088 18.6585 19.6498 18.7064C19.4909 18.7544 19.3235 18.7676 19.159 18.745C16.9601 18.3768 14.7139 18.3942 12.521 18.7968C12.382 18.8188 12.252 18.8367 12.105 18.8627L12.022 18.8768L11.939 18.8627C11.792 18.8367 11.663 18.8198 11.523 18.7968C9.33045 18.3941 7.08459 18.3768 4.88602 18.745C4.72137 18.7685 4.55356 18.7554 4.39432 18.7074C4.23509 18.6594 4.08826 18.5773 3.96402 18.4667C3.82075 18.3357 3.70719 18.176 3.63095 17.9974C3.55472 17.8189 3.51755 17.6261 3.52201 17.432V5.10682H3.00199C2.86627 5.11048 2.73753 5.16786 2.64371 5.26599C2.54989 5.36413 2.49859 5.49597 2.50101 5.63172ZM12.886 3.75281C12.7735 3.7959 12.6775 3.87377 12.6121 3.97498C12.5467 4.07619 12.5151 4.19548 12.522 4.3158V17.7787C14.7608 17.3862 17.0501 17.3773 19.292 17.7518C19.3151 17.7551 19.3385 17.7533 19.3609 17.747C19.3833 17.7406 19.4041 17.7296 19.422 17.7147C19.4572 17.6767 19.4841 17.6322 19.5013 17.5834C19.5185 17.5345 19.5256 17.4827 19.522 17.431V4.3158C19.5286 4.19553 19.4969 4.07613 19.4316 3.97498C19.3662 3.87383 19.2704 3.79616 19.158 3.75281C17.081 3.41497 14.963 3.41497 12.886 3.75281ZM11.523 17.7797V4.31678C11.5299 4.19645 11.4984 4.07716 11.433 3.97596C11.3675 3.87475 11.2716 3.79688 11.159 3.75379C9.08205 3.41545 6.96397 3.41545 4.887 3.75379C4.77462 3.79714 4.67889 3.8753 4.6135 3.97644C4.5481 4.07759 4.51639 4.19651 4.52298 4.31678V17.432C4.51966 17.4836 4.52686 17.5351 4.54404 17.5839C4.56122 17.6327 4.58808 17.6775 4.62302 17.7157C4.64024 17.7317 4.66097 17.7435 4.68357 17.7499C4.70616 17.7563 4.72997 17.7573 4.75302 17.7528C5.87883 17.5848 7.01478 17.4939 8.15299 17.4808C9.28243 17.4911 10.4093 17.5915 11.523 17.7797Z" fill="#1F212B"/>
</svg>
