<svg width="24" height="24" viewBox="0 0 24 24" fill="none" xmlns="http://www.w3.org/2000/svg">
<path d="M11.001 21.4999C10.6876 21.4985 10.3825 21.3989 10.1285 21.2152C9.87454 21.0316 9.68445 20.7732 9.58499 20.476H3.00101C2.60017 20.4723 2.21714 20.3095 1.93595 20.0238C1.65475 19.7381 1.49835 19.3529 1.50101 18.952V5.63172C1.49835 5.23086 1.65475 4.84563 1.93595 4.55994C2.21714 4.27425 2.60017 4.11149 3.00101 4.10779H3.55802C3.58383 3.78404 3.71446 3.47762 3.93009 3.23474C4.14572 2.99187 4.4346 2.82606 4.75302 2.76209C6.91879 2.41394 9.12626 2.41394 11.292 2.76209C11.3724 2.88213 11.481 2.98018 11.6084 3.04822C11.7358 3.11626 11.8781 3.15223 12.0225 3.15223C12.1669 3.15223 12.3091 3.11626 12.4366 3.04822C12.564 2.98018 12.6727 2.88213 12.753 2.76209C14.9185 2.41464 17.1255 2.41464 19.291 2.76209C19.6099 2.82601 19.8994 2.99148 20.1159 3.23426C20.3323 3.47703 20.464 3.78367 20.491 4.10779H21.004C21.4049 4.11123 21.7881 4.2737 22.0694 4.55945C22.3506 4.8452 22.5069 5.23079 22.504 5.63172V18.952C22.5069 19.353 22.3506 19.7385 22.0694 20.0243C21.7881 20.31 21.4049 20.4725 21.004 20.476H14.421C14.3204 20.7733 14.1295 21.0316 13.875 21.2152C13.6204 21.3988 13.3149 21.4983 13.001 21.4999H11.001ZM2.50101 5.63172V18.952C2.49832 19.0876 2.54941 19.2188 2.6431 19.3168C2.73679 19.4148 2.86547 19.4716 3.00101 19.475H10.001C10.1336 19.475 10.2608 19.5277 10.3546 19.6215C10.4484 19.7152 10.501 19.8424 10.501 19.975C10.4978 20.1109 10.5486 20.2423 10.6424 20.3407C10.7361 20.4391 10.8651 20.4965 11.001 20.4999H13.001C13.1368 20.4962 13.2657 20.4391 13.3593 20.3407C13.453 20.2423 13.504 20.1108 13.501 19.975C13.501 19.8424 13.5537 19.7152 13.6474 19.6215C13.7412 19.5277 13.8684 19.475 14.001 19.475H21.001C21.1366 19.4718 21.2655 19.4148 21.3592 19.3168C21.453 19.2187 21.504 19.0877 21.501 18.952V5.63172C21.5042 5.49582 21.4534 5.36443 21.3597 5.26599C21.2659 5.16756 21.1369 5.11022 21.001 5.10682H20.522V17.432C20.5263 17.6261 20.489 17.8185 20.4128 17.997C20.3366 18.1754 20.2231 18.3356 20.08 18.4667C19.9555 18.5765 19.8088 18.6585 19.6498 18.7064C19.4909 18.7544 19.3235 18.7676 19.159 18.745C16.9601 18.3768 14.7139 18.3942 12.521 18.7968C12.382 18.8188 12.252 18.8367 12.105 18.8627L12.022 18.8768L11.939 18.8627C11.792 18.8367 11.663 18.8198 11.523 18.7968C9.33045 18.3941 7.08459 18.3768 4.88602 18.745C4.72137 18.7685 4.55356 18.7554 4.39432 18.7074C4.23509 18.6594 4.08826 18.5773 3.96402 18.4667C3.82075 18.3357 3.70719 18.176 3.63095 17.9974C3.55472 17.8189 3.51755 17.6261 3.52201 17.432V5.10682H3.00199C2.86627 5.11048 2.73753 5.16786 2.64371 5.26599C2.54989 5.36413 2.49859 5.49597 2.50101 5.63172ZM12.886 3.75281C12.7735 3.7959 12.6775 3.87377 12.6121 3.97498C12.5467 4.07619 12.5151 4.19548 12.522 4.3158V17.7787C14.7608 17.3862 17.0501 17.3773 19.292 17.7518C19.3151 17.7551 19.3385 17.7533 19.3609 17.747C19.3833 17.7406 19.4041 17.7296 19.422 17.7147C19.4572 17.6767 19.4841 17.6322 19.5013 17.5834C19.5185 17.5345 19.5256 17.4827 19.522 17.431V4.3158C19.5286 4.19553 19.4969 4.07613 19.4316 3.97498C19.3662 3.87383 19.2704 3.79616 19.158 3.75281C17.081 3.41497 14.963 3.41497 12.886 3.75281ZM11.523 17.7797V4.31678C11.5299 4.19645 11.4984 4.07716 11.433 3.97596C11.3675 3.87475 11.2716 3.79688 11.159 3.75379C9.08205 3.41545 6.96397 3.41545 4.887 3.75379C4.77462 3.79714 4.67889 3.8753 4.6135 3.97644C4.5481 4.07759 4.51639 4.19651 4.52298 4.31678V17.432C4.51966 17.4836 4.52686 17.5351 4.54404 17.5839C4.56122 17.6327 4.58808 17.6775 4.62302 17.7157C4.64024 17.7317 4.66097 17.7435 4.68357 17.7499C4.70616 17.7563 4.72997 17.7573 4.75302 17.7528C5.87883 17.5848 7.01478 17.4939 8.15299 17.4808C9.28243 17.4911 10.4093 17.5915 11.523 17.7797ZM6.10898 15.6039C6.09134 15.4726 6.12652 15.3396 6.20676 15.2343C6.287 15.1289 6.40579 15.0598 6.53702 15.0419C7.52113 14.8807 8.52489 14.8807 9.50901 15.0419C9.64161 15.0506 9.7653 15.1118 9.85288 15.2118C9.94046 15.3118 9.98474 15.4425 9.97599 15.5751C9.96723 15.7077 9.9062 15.8312 9.80625 15.9188C9.70629 16.0064 9.57563 16.0506 9.44303 16.0419C9.42026 16.0422 9.39751 16.0406 9.37503 16.037C8.48072 15.8939 7.56934 15.8939 6.67502 16.037C6.64896 16.0417 6.62247 16.0439 6.59598 16.0438C6.47478 16.0414 6.3586 15.9951 6.26902 15.9135C6.17943 15.8318 6.12254 15.7204 6.10898 15.6V15.6039ZM14.109 15.6039C14.1003 15.5387 14.1045 15.4726 14.1214 15.4091C14.1383 15.3455 14.1676 15.286 14.2075 15.2338C14.2474 15.1816 14.2973 15.1378 14.3542 15.1049C14.411 15.0719 14.4739 15.0505 14.539 15.0419C15.2152 14.9322 15.9014 14.8986 16.585 14.9418C16.6506 14.9462 16.7147 14.9638 16.7737 14.993C16.8326 15.0223 16.8851 15.0626 16.9283 15.1122C16.9715 15.1618 17.0045 15.2197 17.0254 15.2821C17.0462 15.3445 17.0546 15.4103 17.05 15.476C17.0378 15.6068 16.9758 15.728 16.8767 15.8143C16.7777 15.9007 16.6493 15.9455 16.518 15.9398C15.9012 15.9011 15.282 15.9323 14.672 16.0321C14.6502 16.0357 14.6281 16.0372 14.606 16.037C14.484 16.0375 14.366 15.993 14.2743 15.9125C14.1825 15.832 14.1234 15.721 14.108 15.6L14.109 15.6039ZM14.109 13.097C14.1003 13.0319 14.1045 12.9657 14.1214 12.9022C14.1383 12.8387 14.1676 12.7791 14.2075 12.7269C14.2474 12.6747 14.2973 12.6309 14.3542 12.598C14.411 12.5651 14.4739 12.5437 14.539 12.535C15.3902 12.3947 16.2571 12.3776 17.113 12.4847C17.1786 12.4919 17.242 12.512 17.2998 12.5438C17.3575 12.5757 17.4084 12.6187 17.4495 12.6703C17.4906 12.7219 17.5211 12.7812 17.5392 12.8446C17.5573 12.908 17.5627 12.9744 17.555 13.0399C17.5378 13.1708 17.4701 13.2897 17.3664 13.3715C17.2628 13.4533 17.1314 13.4915 17 13.4779C16.2251 13.3815 15.4404 13.3972 14.67 13.5248C14.6482 13.5281 14.6261 13.5296 14.604 13.5297C14.4834 13.5299 14.3667 13.4866 14.2755 13.4076C14.1844 13.3286 14.1249 13.2194 14.108 13.1L14.109 13.097ZM6.10898 13.097C6.09134 12.9658 6.12652 12.8328 6.20676 12.7274C6.287 12.6221 6.40579 12.5529 6.53702 12.535C7.25884 12.4182 7.99199 12.3876 8.72098 12.4447C8.85359 12.4554 8.97654 12.5186 9.06272 12.62C9.14889 12.7214 9.19126 12.8526 9.18051 12.9852C9.16977 13.1178 9.10677 13.2409 9.0054 13.327C8.90404 13.4132 8.7726 13.4554 8.63999 13.4447C7.98266 13.3959 7.32189 13.4238 6.67099 13.5277C6.64849 13.5311 6.62576 13.5331 6.603 13.5331C6.48225 13.5327 6.36574 13.4887 6.27494 13.4091C6.18413 13.3295 6.12516 13.2196 6.10898 13.1V13.097ZM14.109 10.5887C14.0919 10.4575 14.1277 10.3251 14.2083 10.2201C14.2889 10.1151 14.4078 10.0461 14.539 10.0287C15.0303 9.95408 15.5261 9.91435 16.023 9.90906C16.1556 9.90906 16.2828 9.96178 16.3766 10.0555C16.4703 10.1493 16.523 10.2765 16.523 10.4091C16.523 10.5417 16.4703 10.6688 16.3766 10.7626C16.2828 10.8563 16.1556 10.9091 16.023 10.9091C15.5703 10.9141 15.1186 10.9504 14.671 11.0179C14.6491 11.0212 14.6271 11.0228 14.605 11.0228C14.4835 11.0231 14.3659 10.9794 14.2744 10.8993C14.183 10.8192 14.1238 10.7083 14.108 10.5878L14.109 10.5887ZM9.37601 11.0189C8.4817 10.8759 7.57031 10.8759 6.676 11.0189C6.54794 11.03 6.42054 10.9914 6.32022 10.911C6.2199 10.8307 6.15435 10.7147 6.13724 10.5873C6.12013 10.4599 6.15275 10.3309 6.2283 10.2269C6.30386 10.1229 6.41655 10.0518 6.543 10.0287C7.52723 9.86897 8.53076 9.86897 9.51499 10.0287C9.6476 10.0374 9.77134 10.0987 9.85892 10.1986C9.9465 10.2986 9.99078 10.4293 9.98203 10.5619C9.97328 10.6945 9.91218 10.8181 9.81223 10.9056C9.71227 10.9932 9.58162 11.0374 9.44901 11.0287C9.42408 11.0271 9.39935 11.0237 9.37503 11.0179L9.37601 11.0189ZM14.109 8.08387C14.1003 8.01872 14.1045 7.95256 14.1214 7.88904C14.1383 7.82553 14.1676 7.76595 14.2075 7.71375C14.2474 7.66155 14.2973 7.61776 14.3542 7.58484C14.411 7.55192 14.4739 7.53047 14.539 7.52185C15.5224 7.36022 16.5256 7.36022 17.509 7.52185C17.6416 7.53061 17.7653 7.59182 17.8529 7.69178C17.9405 7.79173 17.9847 7.92245 17.976 8.05506C17.9672 8.18767 17.9062 8.31123 17.8062 8.39881C17.7063 8.48639 17.5756 8.53061 17.443 8.52185C17.4209 8.52189 17.3988 8.52034 17.377 8.51697C16.4807 8.37295 15.5672 8.37295 14.671 8.51697C14.6443 8.52173 14.6172 8.52391 14.59 8.52381C14.4701 8.52032 14.3555 8.4739 14.267 8.39295C14.1785 8.31199 14.1221 8.20198 14.108 8.08289L14.109 8.08387ZM14.109 5.57508C14.1003 5.50993 14.1045 5.44328 14.1214 5.37976C14.1383 5.31625 14.1676 5.25716 14.2075 5.20496C14.2474 5.15276 14.2973 5.10848 14.3542 5.07557C14.411 5.04265 14.4739 5.02169 14.539 5.01307C15.2606 4.89693 15.9934 4.86701 16.722 4.92469C16.7875 4.92999 16.8512 4.94844 16.9097 4.9784C16.9682 5.00836 17.0201 5.04944 17.0627 5.09949C17.1052 5.14955 17.1375 5.20738 17.1576 5.2699C17.1778 5.33243 17.1854 5.39828 17.18 5.46375C17.1671 5.5949 17.1035 5.71603 17.0029 5.80115C16.9023 5.88627 16.7725 5.92876 16.641 5.9198C15.9837 5.86931 15.3228 5.89718 14.672 6.00281C14.6502 6.00611 14.6281 6.00766 14.606 6.00769C14.4844 6.00827 14.3668 5.96453 14.2751 5.88465C14.1835 5.80476 14.1241 5.69462 14.108 5.5741L14.109 5.57508Z" fill="#1F212B"/>
</svg>
