<svg width="24" height="24" viewBox="0 0 24 24" fill="none" xmlns="http://www.w3.org/2000/svg">
<path d="M5.51525 22.4992C5.44257 22.4992 5.37077 22.4833 5.30484 22.4527C5.23892 22.4221 5.18045 22.3775 5.13352 22.322C5.08659 22.2665 5.05233 22.2015 5.03311 22.1314C5.01389 22.0613 5.01019 21.9878 5.02225 21.9162L6.22225 14.9512L1.15225 10.0172C1.08542 9.95212 1.03811 9.86968 1.01567 9.77917C0.993227 9.68865 0.996549 9.59365 1.02526 9.50492C1.05397 9.41619 1.10692 9.33726 1.17814 9.27705C1.24935 9.21683 1.33598 9.17773 1.42825 9.16417L8.43425 8.14817L11.5673 1.81117C11.6133 1.73277 11.6791 1.66778 11.758 1.62262C11.837 1.57747 11.9263 1.55371 12.0173 1.55371C12.1082 1.55371 12.1975 1.57747 12.2765 1.62262C12.3554 1.66778 12.4212 1.73277 12.4673 1.81117L15.5993 8.14817L22.6053 9.16417C22.6976 9.17758 22.7844 9.21656 22.8557 9.27672C22.927 9.33687 22.9801 9.41579 23.0089 9.50455C23.0378 9.5933 23.0412 9.68835 23.0188 9.77895C22.9964 9.86954 22.9491 9.95206 22.8823 10.0172L17.8123 14.9502L19.0123 21.9152C19.0277 22.007 19.0172 22.1013 18.982 22.1875C18.9468 22.2736 18.8882 22.3483 18.8128 22.4029C18.7375 22.4576 18.6483 22.4901 18.5555 22.4969C18.4626 22.5037 18.3697 22.4844 18.2873 22.4412L12.0153 19.1532L5.74925 22.4422C5.67706 22.4799 5.59673 22.4995 5.51525 22.4992ZM2.57525 10.0082L7.10625 14.4182C7.16443 14.4746 7.20802 14.5443 7.23328 14.6213C7.25854 14.6983 7.26471 14.7803 7.25125 14.8602L6.18025 21.0872L11.7803 18.1482C11.852 18.1105 11.9318 18.0908 12.0128 18.0908C12.0938 18.0908 12.1735 18.1105 12.2453 18.1482L17.8453 21.0872L16.7753 14.8612C16.7617 14.7813 16.7677 14.6994 16.7928 14.6224C16.8178 14.5454 16.8613 14.4757 16.9193 14.4192L21.4523 10.0092L15.1883 9.10017C15.1081 9.08839 15.0319 9.05729 14.9664 9.00956C14.9009 8.96183 14.848 8.89889 14.8123 8.82617L12.0153 3.16017L9.21525 8.82617C9.17948 8.89889 9.12656 8.96183 9.06106 9.00956C8.99556 9.05729 8.91944 9.08839 8.83925 9.10017L2.57525 10.0082Z" fill="white"/>
</svg>
