<svg width="24" height="24" viewBox="0 0 24 24" fill="none" xmlns="http://www.w3.org/2000/svg">
<path d="M17.471 9.87481V6.48181C17.4515 5.039 16.8647 3.66188 15.8375 2.64848C14.8104 1.63508 13.4254 1.06689 11.9825 1.06689C10.5396 1.06689 9.15465 1.63508 8.12747 2.64848C7.1003 3.66188 6.51348 5.039 6.494 6.48181V9.87481C5.832 9.8764 5.19765 10.1405 4.73011 10.6092C4.26257 11.0778 4 11.7128 4 12.3748V20.4278C4 21.0908 4.26339 21.7267 4.73223 22.1956C5.20107 22.6644 5.83696 22.9278 6.5 22.9278H17.466C18.129 22.9278 18.7649 22.6644 19.2338 22.1956C19.7026 21.7267 19.966 21.0908 19.966 20.4278V12.3748C19.966 11.7126 19.7033 11.0775 19.2355 10.6088C18.7678 10.1401 18.1332 9.87613 17.471 9.87481ZM11.983 1.99881C13.1723 1.99934 14.3127 2.47166 15.1541 3.31213C15.9955 4.1526 16.4691 5.29255 16.471 6.48181V9.87481H7.494V6.48181C7.49612 5.29245 7.96994 4.15251 8.8115 3.31207C9.65306 2.47163 10.7936 1.99934 11.983 1.99881ZM18.966 20.4238C18.966 20.8216 18.808 21.2032 18.5267 21.4845C18.2454 21.7658 17.8638 21.9238 17.466 21.9238H6.5C6.10218 21.9238 5.72064 21.7658 5.43934 21.4845C5.15804 21.2032 5 20.8216 5 20.4238V12.3748C5 11.977 5.15804 11.5955 5.43934 11.3141C5.72064 11.0328 6.10218 10.8748 6.5 10.8748H17.466C17.8638 10.8748 18.2454 11.0328 18.5267 11.3141C18.808 11.5955 18.966 11.977 18.966 12.3748V20.4238Z" fill="white"/>
</svg>
