<svg width="35" height="30" viewBox="0 0 35 30" fill="none" xmlns="http://www.w3.org/2000/svg">
<path d="M2.33512 15.292C3.71612 15.292 5.75322 15.2698 8.067 15.2381C8.48043 14.7625 8.92706 14.2823 9.41717 13.7766C6.55715 13.7275 3.97935 13.6974 2.33512 13.6974C1.18416 13.6974 0.252958 14.0532 0.252958 14.4899C0.252958 14.9266 1.18416 15.2888 2.33512 15.2888M5.99274 17.8131C6.33582 17.3439 6.72949 16.8272 7.18955 16.2668C5.15245 16.2383 3.37383 16.2232 2.12327 16.2232C0.948595 16.2232 0 16.5862 0 17.034C0 17.4818 0.948595 17.844 2.12327 17.844C3.12008 17.844 4.46234 17.8337 5.99669 17.8139M6.14215 22.8546C5.86231 22.5787 4.91925 21.4882 4.80226 21.3859C4.11532 21.3812 3.49478 21.3772 2.98412 21.3772C1.89877 21.3772 1.02132 21.7101 1.02132 22.1294C1.02132 22.5486 1.89877 22.8775 2.98412 22.8775C3.81177 22.8775 4.90265 22.8664 6.1461 22.8546M4.44179 20.3628C4.48996 20.1376 4.59014 19.927 4.73427 19.7477C4.71056 19.7778 4.69396 19.8016 4.72005 19.7533C4.8734 19.4949 5.07577 19.1747 5.3224 18.8022C4.16195 18.7879 3.14064 18.7816 2.34303 18.7816C1.19207 18.7816 0.260862 19.1359 0.260862 19.5742C0.260862 20.0124 1.19207 20.3667 2.34303 20.3667C2.93432 20.3667 3.64418 20.3667 4.44179 20.3604M8.4251 29.2291C8.4251 29.4312 8.7745 29.6 9.20531 29.6C11.4187 29.6 18.1474 29.4312 18.1474 29.2291C18.1474 29.027 11.4163 28.8621 9.20531 28.8621C8.7737 28.8621 8.4251 29.0278 8.4251 29.2291ZM17.3182 26.8918C13.5515 26.7642 8.4251 26.6834 6.11132 26.6834C5.35718 26.6834 4.74455 26.9156 4.74455 27.2073C4.74455 27.4989 5.35718 27.728 6.11132 27.728C8.53735 27.728 14.0503 27.6361 17.851 27.4966C17.6747 27.3056 17.4984 27.1003 17.3182 26.8918ZM15.323 24.1765C11.1159 24.0664 6.49629 23.999 4.15089 23.999C3.19123 23.999 2.4118 24.297 2.4118 24.664C2.4118 25.0309 3.19281 25.3289 4.15089 25.3289C6.61644 25.3289 11.6084 25.2497 15.9846 25.134C15.7633 24.8225 15.5427 24.4999 15.3222 24.1773M23.6856 11.8808C23.6535 11.9893 23.6086 12.0936 23.552 12.1915C24.2195 12.2103 24.886 12.1266 25.5282 11.9434C24.9458 11.7731 24.3403 11.695 23.7338 11.712L23.6856 11.8808ZM9.19899 5.20351C11.4124 5.20351 18.1411 5.045 18.1411 4.83894C18.1411 4.63287 11.41 4.47198 9.19899 4.47198C8.76738 4.47198 8.41877 4.63049 8.41877 4.83894C8.41877 5.04738 8.76817 5.20351 9.19899 5.20351ZM22.6153 9.20276C22.3188 9.35652 22.0366 9.51027 21.7544 9.66482C22.5552 9.68085 23.3548 9.59456 24.1338 9.40803C23.6426 9.25505 23.1293 9.18567 22.6153 9.20276ZM2.97463 12.6956C4.70107 12.6956 7.52709 12.6607 10.5974 12.6036C11.0408 12.1788 11.5104 11.7524 12.0116 11.3125C8.40771 11.242 4.9651 11.1937 2.97463 11.1937C1.88928 11.1937 1.01183 11.5313 1.01183 11.9434C1.01183 12.3555 1.88928 12.6956 2.97463 12.6956ZM21.4967 14.096C21.9877 14.3871 22.5052 14.6307 23.0421 14.8236C25.0184 14.7237 26.2879 14.6112 26.2879 14.4923C26.2879 14.3496 24.3306 14.2165 21.4967 14.096ZM4.73111 6.86392C4.73111 7.15162 5.34375 7.38463 6.09788 7.38463C8.42747 7.38463 13.5934 7.30538 17.3696 7.17223C17.6518 6.97567 17.9387 6.77199 18.213 6.58732C14.4052 6.43911 8.60217 6.34084 6.09788 6.34084C5.34375 6.34084 4.73111 6.57464 4.73111 6.86392ZM4.14773 10.0706C6.18562 10.0706 9.9389 10.0143 13.6503 9.93112C14.07 9.59666 14.5127 9.25586 14.968 8.91268C10.8575 8.80569 6.43068 8.74387 4.14773 8.74387C3.18806 8.74387 2.40864 9.03949 2.40864 9.40724C2.40864 9.77498 3.18965 10.0706 4.14773 10.0706ZM13.5807 21.7038C12.9223 21.9372 12.235 22.0788 11.5381 22.1246C10.7982 22.1611 10.0817 22.3965 9.46381 22.8062C11.0282 22.7809 12.689 22.7484 14.3253 22.7103C14.2147 22.547 13.87 22.0359 13.8661 22.0359C13.7893 21.9143 13.6994 21.8016 13.5981 21.6998C13.5902 21.6998 13.5941 21.6998 13.5807 21.6998" fill="white"/>
<path d="M26.5118 16.4325C26.5276 16.8367 26.5236 17.2393 26.507 17.634C22.5877 17.7925 18.874 18.0303 18.874 18.291C18.874 18.5518 22.5103 18.7871 26.3774 18.9417C26.3078 19.3911 26.2193 19.8317 26.1133 20.2597C22.2968 20.4182 18.757 20.6481 18.757 20.9096C18.757 21.1577 22.0613 21.3851 25.7236 21.5365C25.5571 21.9991 25.3663 22.4525 25.1521 22.895C22.0083 23.0535 19.4092 23.2516 19.4092 23.4696C19.4092 23.6875 21.6787 23.8659 24.5411 24.0133C24.379 24.2796 24.217 24.5348 24.0407 24.7765C23.8517 25.042 23.651 25.3043 23.4344 25.5588C21.6463 25.6982 20.4178 25.848 20.4178 26.0176C20.4178 26.1635 21.2969 26.2966 22.6518 26.4139C21.8604 27.195 20.9722 27.8711 20.0091 28.4254C19.215 27.7264 18.4751 26.9679 17.7958 26.1563C16.9057 25.0658 15.0093 22.1936 14.5626 21.546C14.116 20.8985 13.8259 20.7154 13.3018 20.9033C12.7337 21.104 12.1419 21.2292 11.5414 21.2758C11.29 21.2758 11.1556 21.1799 11.573 21.0119C12.7945 20.5047 13.8102 19.6002 14.4567 18.444C15.365 16.625 14.5626 14.1158 14.5626 14.1158C14.448 14.8273 14.095 15.4783 13.5619 15.9617C13.6846 15.4184 13.6918 14.8552 13.5828 14.309C13.4738 13.7627 13.2512 13.2456 12.9295 12.7914L12.5856 14.371C12.5856 14.371 12.3745 14.3631 11.8441 14.8085C11.5169 15.1013 11.2817 15.4832 11.1675 15.9078C11.5856 16.075 12.0876 15.655 12.0876 15.655C11.609 17.5522 10.8575 19.3696 9.85681 21.0499C9.43833 21.815 8.77138 22.4135 7.96675 22.746C7.39838 22.9734 7.21419 22.7063 7.21419 22.7063C6.76004 22.3151 6.34153 21.8841 5.96363 21.4184C5.96363 21.4184 5.9328 21.3606 6.03636 21.3669C6.31303 21.3717 6.80156 20.8977 6.91222 20.6996C7.03238 20.4785 7.01973 20.3033 6.95965 20.293C6.89958 20.2827 6.79286 20.4586 6.26323 20.7971C5.7336 21.1355 5.49091 20.9017 5.31463 20.7131C5.18104 20.5664 5.31463 20.381 5.39843 20.2668C5.48222 20.1527 8.27424 14.9337 15.6749 9.43734C25.3695 2.23696 31.5638 0.29678 31.918 0.155705C32.1551 0.0613907 32.5353 -0.0566981 32.6231 0.0304832C32.6677 0.0658908 32.7028 0.111915 32.7251 0.164373C32.7475 0.216831 32.7564 0.274059 32.7511 0.330861C32.7409 0.448952 32.6784 0.505223 32.2326 0.70574C28.5805 2.4426 25.0581 4.44134 21.6929 6.68638C19.5965 7.76154 17.5776 8.98242 15.6511 10.3401C15.414 10.4867 15.5919 10.6951 15.7302 10.6072C20.8558 7.18965 26.8691 4.85557 33.5092 2.95026C33.831 2.85991 34.0001 2.85991 34.0555 2.93045C34.1116 3.00745 34.1443 3.09913 34.1495 3.19437C34.159 3.3188 34.0602 3.38062 33.7843 3.48999C26.6493 6.14453 21.3899 8.61335 18.006 10.8964C18.006 10.8964 17.6535 11.1081 17.6503 11.3545C17.6503 11.4473 17.8361 11.4599 17.8361 11.4599C19.5341 11.4877 21.7949 11.5876 22.8739 11.651C22.8739 11.651 22.7158 12.197 21.6882 12.6424C20.9632 12.898 20.1923 12.9963 19.4265 12.9309C19.3857 12.927 19.3446 12.9355 19.3086 12.9553C19.2726 12.9752 19.2434 13.0054 19.2249 13.0422C19.2064 13.0789 19.1993 13.1204 19.2047 13.1612C19.2101 13.202 19.2276 13.2403 19.255 13.2709C19.3198 13.355 20.8708 15.8618 26.5133 16.4317" fill="white"/>
</svg>
