<svg width="24" height="24" viewBox="0 0 24 24" fill="none" xmlns="http://www.w3.org/2000/svg">
<path d="M5.5 2.5H10.5C10.7761 2.5 11 2.72386 11 3V10C11 10.2761 10.7761 10.5 10.5 10.5H5.5C5.22386 10.5 5 10.2761 5 10V3C5 2.72386 5.22386 2.5 5.5 2.5Z" stroke="white" stroke-width="1" fill="none"/>
<rect x="5.5" y="3" width="5" height="3.5" rx="0.25" fill="white" opacity="0.9"/>
<path d="M8 10.5V14" stroke="white" stroke-width="1" stroke-linecap="round"/>
<path d="M5.5 14H10.5" stroke="white" stroke-width="1" stroke-linecap="round"/>
<path d="M14 5C14 5 15.5 3 18 3C20.5 3 22 5 22 7.5C22 10 20.5 12 18 14.5C15.5 12 14 10 14 7.5C14 5 14 5 14 5Z" stroke="white" stroke-width="1" fill="none"/>
<circle cx="18" cy="7.5" r="1.5" fill="white" opacity="0.6"/>
<path d="M3 17.5L7 21.5" stroke="white" stroke-width="1.2" stroke-linecap="round"/>
<path d="M3 21.5L7 17.5" stroke="white" stroke-width="1.2" stroke-linecap="round"/>
</svg>
