<svg width="24" height="24" viewBox="0 0 24 24" fill="none" xmlns="http://www.w3.org/2000/svg">
<path d="M19 21.501H5C4.33696 21.501 3.70102 21.2376 3.23218 20.7688C2.76334 20.3 2.5 19.664 2.5 19.001V15.001C2.5 14.8684 2.55272 14.7412 2.64648 14.6475C2.74025 14.5537 2.86739 14.501 3 14.501C3.13261 14.501 3.25975 14.5537 3.35352 14.6475C3.44728 14.7412 3.5 14.8684 3.5 15.001V19.001C3.5 19.3988 3.65803 19.7803 3.93933 20.0616C4.22064 20.343 4.60218 20.501 5 20.501H19C19.3978 20.501 19.7794 20.343 20.0607 20.0616C20.342 19.7803 20.5 19.3988 20.5 19.001V15.001C20.5 14.8684 20.5527 14.7412 20.6465 14.6475C20.7403 14.5537 20.8674 14.501 21 14.501C21.1326 14.501 21.2597 14.5537 21.3535 14.6475C21.4473 14.7412 21.5 14.8684 21.5 15.001V19.001C21.5 19.664 21.2365 20.3 20.7677 20.7688C20.2989 21.2376 19.663 21.501 19 21.501Z" fill="white"/>
<path d="M12 15.501C11.8675 15.5007 11.7405 15.4479 11.647 15.354L6.64699 10.354C6.55591 10.2597 6.50559 10.1334 6.50673 10.0023C6.50787 9.87124 6.56039 9.7458 6.65309 9.6531C6.7458 9.56039 6.87124 9.50787 7.00234 9.50673C7.13344 9.50559 7.25972 9.55591 7.35402 9.64699L12 14.2941L16.647 9.64699C16.7413 9.55591 16.8676 9.50559 16.9987 9.50673C17.1298 9.50787 17.2552 9.56039 17.3479 9.6531C17.4406 9.7458 17.4933 9.87124 17.4944 10.0023C17.4955 10.1334 17.4451 10.2597 17.354 10.354L12.354 15.354C12.3076 15.4006 12.2524 15.4376 12.1917 15.4628C12.1309 15.488 12.0658 15.501 12 15.501Z" fill="white"/>
<path d="M12 15.501C11.8675 15.5007 11.7405 15.4479 11.647 15.354C11.5532 15.2603 11.5 15.1336 11.5 15.001V3.00098C11.5 2.86837 11.5527 2.74123 11.6465 2.64746C11.7403 2.55369 11.8674 2.50098 12 2.50098C12.1326 2.50098 12.2597 2.55369 12.3535 2.64746C12.4473 2.74123 12.5 2.86837 12.5 3.00098V15.001C12.5 15.1336 12.4478 15.2603 12.354 15.354C12.2603 15.4478 12.1326 15.501 12 15.501Z" fill="white"/>
</svg>
