<svg width="24" height="24" viewBox="0 0 24 24" fill="none" xmlns="http://www.w3.org/2000/svg">
<g clip-path="url(#clip0_967_2527)">
<path d="M7.90039 8.69971C8.20027 8.69971 8.40023 8.89991 8.40039 9.19971C8.40039 9.49971 8.20039 9.69971 7.90039 9.69971H6.10059C5.20064 9.69971 4.40048 10.4 4.40039 11.3999V19.6997C4.40039 20.5997 5.20059 21.3999 6.10059 21.3999H17.9004C18.8004 21.3999 19.6006 20.5997 19.6006 19.6997V11.3999C19.6005 10.5 18.9003 9.69971 17.9004 9.69971H16.2002C15.9003 9.69962 15.7002 9.49964 15.7002 9.19971C15.7004 8.89998 15.9004 8.69979 16.2002 8.69971H17.9004C19.4003 8.69971 20.6005 9.89998 20.6006 11.3999V19.6997C20.6006 21.1997 19.4004 22.3999 17.9004 22.3999H6.10059C4.60059 22.3999 3.40039 21.1997 3.40039 19.6997V11.3999C3.40048 9.89998 4.60064 8.69971 6.10059 8.69971H7.90039ZM16.1006 4.19971C16.3005 4.39964 16.3004 4.6999 16.1006 4.8999C16.1006 4.9952 15.9187 5.0894 15.7285 5.09814C15.6525 5.09378 15.576 5.07652 15.5 5.00049L12.501 2.34326V12.6997C12.501 12.9995 12.3007 13.1995 12.001 13.1997C11.701 13.1997 11.501 12.9997 11.501 12.6997V2.34131L8.5 5.00049C8.30013 5.19997 8.00065 5.19997 7.80078 5.00049C7.60078 4.80049 7.60078 4.50029 7.80078 4.30029L12 0.600098L16.1006 4.19971ZM15.8008 5.1001H15.7002C15.7096 5.1001 15.7191 5.09858 15.7285 5.09814C15.7525 5.09952 15.7768 5.1001 15.8008 5.1001Z" fill="white"/>
</g>
<defs>
<clipPath id="clip0_967_2527">
<rect width="24" height="24" fill="white"/>
</clipPath>
</defs>
</svg>
