<svg width="24" height="24" viewBox="0 0 24 24" fill="none" xmlns="http://www.w3.org/2000/svg">
<path d="M20.4202 3.25H3.58023C2.82734 3.25106 2.10559 3.55061 1.57322 4.08299C1.04085 4.61536 0.741293 5.33711 0.740234 6.09V17.84C0.741293 18.5929 1.04085 19.3146 1.57322 19.847C2.10559 20.3794 2.82734 20.6789 3.58023 20.68H4.51023C4.57294 20.7085 4.64138 20.7222 4.71023 20.72C4.7786 20.7173 4.8461 20.7038 4.91023 20.68H20.4302C21.1831 20.6789 21.9049 20.3794 22.4372 19.847C22.9696 19.3146 23.2692 18.5929 23.2702 17.84V6.1C23.2692 5.34711 22.9696 4.62536 22.4372 4.09299C21.9049 3.56061 21.1831 3.26106 20.4302 3.26L20.4202 3.25ZM22.2602 6.74C21.6428 6.63394 21.0749 6.33478 20.6383 5.88555C20.2016 5.43633 19.9187 4.86019 19.8302 4.24H20.4202C20.9081 4.24053 21.3758 4.43456 21.7207 4.77951C22.0657 5.12446 22.2597 5.59216 22.2602 6.08V6.74ZM4.16023 4.25C4.05785 4.8573 3.76883 5.41762 3.33335 5.85311C2.89786 6.2886 2.33753 6.57761 1.73023 6.68V6.09C1.73076 5.60216 1.92479 5.13446 2.26974 4.78951C2.61469 4.44456 3.0824 4.25053 3.57023 4.25H4.16023ZM3.90023 10.11V13.63H1.73023V10.11H3.90023ZM4.91023 14.63V9.11H1.73023V7.68C2.60075 7.56798 3.40958 7.17058 4.0302 6.54996C4.65082 5.92934 5.04822 5.12051 5.16023 4.25H11.6402C11.9123 5.29826 12.0864 6.36953 12.1602 7.45C12.1702 8.07 12.1602 8.62 12.1202 9.12C12.0802 9.12 12.0402 9.11 12.0002 9.11C11.2677 9.10897 10.5585 9.36791 9.99894 9.84073C9.43938 10.3136 9.06575 10.9696 8.94454 11.6921C8.82332 12.4145 8.9624 13.1566 9.337 13.7861C9.71161 14.4157 10.2974 14.8919 10.9902 15.13C10.8877 15.9225 10.8376 16.7209 10.8402 17.52C10.8391 18.2559 10.9504 18.9877 11.1702 19.69H5.15023C5.03045 18.8292 4.63063 18.0318 4.01251 17.4209C3.39439 16.8101 2.59235 16.4196 1.73023 16.31V14.64H4.90023L4.91023 14.63ZM13.0102 10.37C13.4134 10.5835 13.7355 10.9231 13.9274 11.3369C14.1193 11.7507 14.1704 12.216 14.0729 12.6616C13.9754 13.1073 13.7346 13.5087 13.3874 13.8045C13.0402 14.1004 12.6057 14.2744 12.1502 14.3C12.2602 13.75 12.3802 13.25 12.5102 12.74C12.717 11.959 12.8839 11.168 13.0102 10.37ZM11.5402 12.49C11.4102 13.01 11.2802 13.54 11.1602 14.13C10.7201 13.935 10.3603 13.5947 10.1411 13.1661C9.92198 12.7375 9.85672 12.2466 9.95631 11.7756C10.0559 11.3046 10.3143 10.8821 10.6882 10.5789C11.0621 10.2757 11.5288 10.1101 12.0102 10.11H12.0302C11.9145 10.9124 11.7509 11.7071 11.5402 12.49ZM1.73023 17.85V17.31C2.32782 17.4134 2.87964 17.6967 3.31204 18.1219C3.74444 18.5472 4.03685 19.0942 4.15023 19.69H3.57023C3.0824 19.6895 2.61469 19.4954 2.26974 19.1505C1.92479 18.8055 1.73076 18.3378 1.73023 17.85ZM20.4202 19.69H19.8402C19.944 19.086 20.2325 18.529 20.6658 18.0956C21.0992 17.6622 21.6562 17.3738 22.2602 17.27V17.85C22.2597 18.3378 22.0657 18.8055 21.7207 19.1505C21.3758 19.4954 20.9081 19.6895 20.4202 19.69ZM22.2602 13.63H20.0902V10.11H22.2602V13.63ZM19.0902 9.11V14.63H22.2602V16.26C21.3916 16.3701 20.5843 16.7659 19.9652 17.385C19.3461 18.0041 18.9504 18.8114 18.8402 19.68H12.2102C11.9598 18.9839 11.8313 18.2498 11.8302 17.51C11.827 16.7713 11.8704 16.0332 11.9602 15.3H11.9902C12.7116 15.295 13.4086 15.0386 13.9613 14.575C14.5139 14.1114 14.8876 13.4695 15.0179 12.76C15.1482 12.0505 15.0269 11.3177 14.6751 10.688C14.3232 10.0583 13.7628 9.57095 13.0902 9.31C13.1391 8.67792 13.1558 8.04377 13.1402 7.41C13.0708 6.33698 12.9035 5.27255 12.6402 4.23H18.8202C18.9182 5.11293 19.3094 5.93753 19.9311 6.57201C20.5529 7.20648 21.3695 7.6142 22.2502 7.73V9.1H19.0802L19.0902 9.11Z" fill="white"/>
</svg>
