<svg width="24" height="24" viewBox="0 0 24 24" fill="none" xmlns="http://www.w3.org/2000/svg">
<path d="M20.586 5.99996H17.043L15.282 3.21296C15.2368 3.14175 15.1743 3.08313 15.1003 3.04256C15.0264 3.002 14.9434 2.98081 14.859 2.98096H9.133C9.04865 2.98081 8.96563 3.002 8.89167 3.04256C8.81771 3.08313 8.75521 3.14175 8.71 3.21296L6.948 5.99996H3.406C2.77086 5.99836 2.16098 6.24859 1.71 6.69583C1.25902 7.14306 1.0037 7.75083 1 8.38596V18.586C1.00318 19.222 1.25867 19.8307 1.71036 20.2784C2.16205 20.7262 2.773 20.9764 3.409 20.974H20.589C21.2248 20.9761 21.8355 20.7258 22.287 20.2781C22.7385 19.8304 22.9938 19.2218 22.997 18.586V8.38596C22.9933 7.74996 22.7373 7.14143 22.2852 6.69405C21.8332 6.24668 21.222 5.99703 20.586 5.99996ZM21.994 18.59C21.9908 18.9606 21.8408 19.3148 21.5769 19.575C21.313 19.8352 20.9566 19.9801 20.586 19.978H3.406C3.03521 19.9796 2.67894 19.834 2.41534 19.5732C2.15175 19.3124 2.00238 18.9577 2 18.587V8.38596C2.0037 8.01604 2.15365 7.66263 2.4171 7.40293C2.68055 7.14323 3.03607 6.99835 3.406 6.99996H7.224C7.30818 6.99994 7.391 6.97867 7.46477 6.93811C7.53854 6.89755 7.60088 6.83903 7.646 6.76796L9.408 3.98096H14.584L16.345 6.76496C16.3899 6.83673 16.4522 6.89594 16.5262 6.93704C16.6002 6.97814 16.6834 6.99979 16.768 6.99996H20.586C20.9568 6.99783 21.3133 7.14288 21.5772 7.40328C21.8412 7.66369 21.9911 8.01817 21.994 8.38896V18.59Z" fill="white"/>
<path d="M11.978 8.05696C10.993 8.05696 10.0301 8.34906 9.21116 8.89631C8.39218 9.44356 7.75388 10.2214 7.37698 11.1314C7.00009 12.0415 6.90153 13.0428 7.09376 14.0089C7.286 14.9749 7.7604 15.8623 8.45696 16.5587C9.15353 17.2551 10.041 17.7293 11.0071 17.9214C11.9732 18.1134 12.9745 18.0147 13.8845 17.6376C14.7944 17.2605 15.5721 16.6221 16.1192 15.803C16.6663 14.9839 16.9582 14.021 16.958 13.036C16.9567 11.7157 16.4315 10.4499 15.4979 9.51638C14.5642 8.5829 13.2983 8.05802 11.978 8.05696ZM11.978 17.017C11.1909 17.017 10.4214 16.7836 9.76693 16.3463C9.11245 15.909 8.60232 15.2875 8.30105 14.5603C7.99979 13.8331 7.92091 13.0329 8.0744 12.2609C8.22789 11.4888 8.60685 10.7797 9.16336 10.223C9.71987 9.66637 10.4289 9.28724 11.2009 9.13355C11.9729 8.97987 12.7731 9.05855 13.5004 9.35963C14.2277 9.66071 14.8493 10.1707 15.2868 10.8251C15.7242 11.4794 15.9578 12.2488 15.958 13.036C15.9572 14.0914 15.5377 15.1033 14.7915 15.8497C14.0453 16.5961 13.0334 17.0159 11.978 17.017Z" fill="white"/>
</svg>
