<svg width="24" height="24" viewBox="0 0 24 24" fill="none" xmlns="http://www.w3.org/2000/svg">
<path d="M15.0004 18.5011C14.8679 18.5008 14.7409 18.448 14.6473 18.3541L8.64734 12.3541C8.5536 12.2604 8.50098 12.1332 8.50098 12.0006C8.50098 11.868 8.5536 11.7409 8.64734 11.6471L14.6473 5.64711C14.7416 5.55603 14.8679 5.50572 14.999 5.50685C15.1301 5.50799 15.2556 5.56051 15.3483 5.65322C15.441 5.74592 15.4936 5.87136 15.4948 6.00246C15.4959 6.13356 15.4454 6.25984 15.3544 6.35414L9.7074 12.0011L15.3544 17.6471C15.4245 17.717 15.4722 17.8062 15.4916 17.9033C15.5109 18.0004 15.5011 18.1012 15.4631 18.1926C15.4252 18.2841 15.361 18.3622 15.2786 18.4171C15.1962 18.4721 15.0994 18.5013 15.0004 18.5011Z" fill="white"/>
</svg>
