<svg width="24" height="24" viewBox="0 0 24 24" fill="none" xmlns="http://www.w3.org/2000/svg">
<path d="M9.49994 19.0011C9.40101 19.0011 9.30435 18.9718 9.22211 18.9168C9.13988 18.8618 9.0757 18.7836 9.03791 18.6922C9.00011 18.6007 8.99031 18.5001 9.00971 18.4031C9.02911 18.3061 9.07687 18.217 9.14692 18.1471L14.7929 12.5011L9.14692 6.85414C9.05584 6.75984 9.00552 6.63356 9.00666 6.50246C9.0078 6.37136 9.06032 6.24592 9.15302 6.15322C9.24572 6.06051 9.37116 6.00799 9.50226 6.00685C9.63336 6.00572 9.75965 6.05603 9.85395 6.14711L15.8539 12.1471C15.9477 12.2409 16.0003 12.368 16.0003 12.5006C16.0003 12.6332 15.9477 12.7604 15.8539 12.8541L9.85395 18.8541C9.80751 18.9007 9.75234 18.9377 9.69159 18.9629C9.63085 18.9881 9.56572 19.0011 9.49994 19.0011Z" fill="white"/>
</svg>
