<svg width="24" height="24" viewBox="0 0 24 24" fill="none" xmlns="http://www.w3.org/2000/svg">
<path d="M20.979 3.02106C20.4485 2.49077 19.7291 2.19287 18.979 2.19287C18.2289 2.19287 17.5095 2.49077 16.979 3.02106L3.57202 16.4271C3.51076 16.4888 3.46635 16.5653 3.44302 16.6491L2.21002 21.1761C2.18681 21.2611 2.1865 21.3508 2.20912 21.436C2.23174 21.5212 2.27649 21.5989 2.33883 21.6613C2.40117 21.7236 2.47888 21.7683 2.56409 21.791C2.6493 21.8136 2.73897 21.8133 2.82402 21.7901L7.35102 20.5561C7.43497 20.5338 7.51132 20.4892 7.57202 20.4271L20.979 7.02106C21.5088 6.49029 21.8064 5.771 21.8064 5.02106C21.8064 4.27112 21.5088 3.55183 20.979 3.02106ZM16.321 5.09306L18.907 7.67906L18.335 8.25106L15.749 5.66506L16.321 5.09306ZM6.95902 19.6261L3.40002 20.5951L4.36902 17.0401L15.042 6.37206L17.628 8.95806L6.95902 19.6261ZM20.272 6.31406L19.614 6.97206L17.028 4.38606L17.687 3.72806C18.0299 3.38527 18.495 3.19274 18.9799 3.19284C19.4648 3.19293 19.9297 3.38564 20.2725 3.72856C20.6153 4.07149 20.8078 4.53654 20.8077 5.02141C20.8077 5.50629 20.6149 5.97127 20.272 6.31406Z" fill="white"/>
</svg>
