<svg width="24" height="24" viewBox="0 0 24 24" fill="none" xmlns="http://www.w3.org/2000/svg">
<path d="M21.4717 5.98982H18.7937C18.8996 5.91398 19.0014 5.83253 19.0987 5.74582C19.67 5.1518 19.9957 4.36385 20.0107 3.53982C20.01 2.87931 19.7499 2.24549 19.2864 1.77489C18.8229 1.3043 18.1931 1.03458 17.5327 1.02382C17.0327 0.956825 13.7617 0.700825 12.0097 5.46382C10.2587 0.699825 6.99168 0.955825 6.48768 1.02382C5.8296 1.03324 5.20146 1.30034 4.73814 1.76777C4.27482 2.23521 4.01328 2.86569 4.00968 3.52382C4.01993 4.35394 4.34563 5.14906 4.92068 5.74782C5.01649 5.83417 5.11662 5.91561 5.22068 5.99182H2.47168C2.07385 5.99182 1.69232 6.14986 1.41102 6.43116C1.12971 6.71247 0.97168 7.094 0.97168 7.49182V11.4918C0.97168 11.8896 1.12971 12.2712 1.41102 12.5525C1.69232 12.8338 2.07385 12.9918 2.47168 12.9918H2.99968V21.4788C2.99968 21.8766 3.15772 22.2582 3.43902 22.5395C3.72032 22.8208 4.10185 22.9788 4.49968 22.9788H19.4997C19.8975 22.9788 20.279 22.8208 20.5603 22.5395C20.8416 22.2582 20.9997 21.8766 20.9997 21.4788V12.9898H21.4717C21.8695 12.9898 22.251 12.8318 22.5323 12.5505C22.8136 12.2692 22.9717 11.8876 22.9717 11.4898V7.48982C22.9717 7.092 22.8136 6.71047 22.5323 6.42916C22.251 6.14786 21.8695 5.98982 21.4717 5.98982ZM17.3897 2.01282L17.4897 2.02382C17.6899 2.02448 17.888 2.06463 18.0727 2.14197C18.2573 2.21932 18.4249 2.33234 18.5659 2.47455C18.7068 2.61677 18.8182 2.7854 18.8939 2.97077C18.9695 3.15614 19.0079 3.35462 19.0067 3.55482C18.9898 4.121 18.7598 4.65992 18.3627 5.06382C17.9666 5.40241 17.5071 5.65868 17.0109 5.81767C16.5147 5.97667 15.9918 6.03519 15.4727 5.98982H12.8837C14.4437 1.49982 17.2637 1.98582 17.3897 2.01282ZM5.65268 5.06382C5.25234 4.65599 5.0221 4.11116 5.00868 3.53982C5.00921 3.13775 5.16924 2.7523 5.45364 2.46808C5.73805 2.18386 6.1236 2.02409 6.52568 2.02382L6.62568 2.01382C6.75268 1.98982 9.57568 1.49982 11.1357 5.98982H8.54268C8.0236 6.03519 7.50069 5.97667 7.00449 5.81767C6.50828 5.65868 6.04873 5.40241 5.65268 5.06382ZM3.99968 21.4768V12.9898H9.02068V21.9768H4.49968C4.36707 21.9768 4.23989 21.9241 4.14613 21.8304C4.05236 21.7366 3.99968 21.6094 3.99968 21.4768ZM13.9787 12.9898V21.9768H10.0207V12.9898H13.9787ZM19.9997 21.4768C19.9997 21.6094 19.947 21.7366 19.8532 21.8304C19.7595 21.9241 19.6323 21.9768 19.4997 21.9768H14.9787V12.9898H19.9997V21.4768ZM21.9717 11.4898C21.9717 11.6224 21.919 11.7496 21.8252 11.8434C21.7315 11.9371 21.6043 11.9898 21.4717 11.9898H2.47168C2.33907 11.9898 2.21189 11.9371 2.11813 11.8434C2.02436 11.7496 1.97168 11.6224 1.97168 11.4898V7.48982C1.97168 7.35722 2.02436 7.23004 2.11813 7.13627C2.21189 7.0425 2.33907 6.98982 2.47168 6.98982H21.4717C21.6043 6.98982 21.7315 7.0425 21.8252 7.13627C21.919 7.23004 21.9717 7.35722 21.9717 7.48982V11.4898Z" fill="white"/>
</svg>
