<svg width="24" height="24" viewBox="0 0 24 24" fill="none" xmlns="http://www.w3.org/2000/svg">
<path d="M20.5235 17.0248C19.9473 17.025 19.3889 17.2241 18.9426 17.5885C18.4964 17.9529 18.1897 18.4603 18.0745 19.0248H3.46548C3.33287 19.0248 3.20569 19.0775 3.11192 19.1713C3.01815 19.2651 2.96548 19.3922 2.96548 19.5248C2.96548 19.6574 3.01815 19.7846 3.11192 19.8784C3.20569 19.9722 3.33287 20.0248 3.46548 20.0248H18.0745C18.1691 20.4883 18.3933 20.9155 18.721 21.2567C19.0487 21.5978 19.4664 21.839 19.9257 21.9522C20.3851 22.0654 20.8671 22.046 21.3158 21.8961C21.7645 21.7463 22.1615 21.4722 22.4606 21.1058C22.7598 20.7393 22.9488 20.2955 23.0058 19.8259C23.0627 19.3563 22.9853 18.8801 22.7824 18.4528C22.5796 18.0254 22.2596 17.6644 21.8598 17.4116C21.4599 17.1589 20.9965 17.0247 20.5235 17.0248ZM20.5235 21.0248C20.2268 21.0248 19.9368 20.9369 19.6901 20.772C19.4434 20.6072 19.2512 20.373 19.1377 20.0989C19.0241 19.8248 18.9944 19.5232 19.0523 19.2322C19.1102 18.9412 19.253 18.674 19.4628 18.4642C19.6726 18.2544 19.9399 18.1115 20.2308 18.0537C20.5218 17.9958 20.8234 18.0255 21.0975 18.139C21.3716 18.2526 21.6059 18.4448 21.7707 18.6915C21.9355 18.9382 22.0235 19.2282 22.0235 19.5248C22.0235 19.9227 21.8654 20.3042 21.5841 20.5855C21.3028 20.8668 20.9213 21.0248 20.5235 21.0248Z" fill="white"/>
<path d="M5.89348 13.0488H20.6285C20.7611 13.0488 20.8883 12.9962 20.982 12.9024C21.0758 12.8086 21.1285 12.6814 21.1285 12.5488C21.1285 12.4162 21.0758 12.2891 20.982 12.1953C20.8883 12.1015 20.7611 12.0488 20.6285 12.0488H5.92148C5.81456 11.4386 5.48488 10.8898 4.99634 10.5089C4.5078 10.1279 3.89521 9.94188 3.27733 9.98689C2.65945 10.0319 2.08029 10.3047 1.65212 10.7525C1.22396 11.2002 0.977304 11.791 0.959965 12.4103C0.942625 13.0296 1.15584 13.6332 1.55828 14.1043C1.96071 14.5753 2.5237 14.8801 3.13809 14.9596C3.75249 15.0391 4.37453 14.8877 4.88362 14.5346C5.39271 14.1816 5.75258 13.6521 5.89348 13.0488ZM1.96548 12.4778C1.96548 12.1812 2.05345 11.8912 2.21827 11.6445C2.38309 11.3978 2.61736 11.2056 2.89145 11.092C3.16554 10.9785 3.46714 10.9488 3.75811 11.0067C4.04908 11.0645 4.31636 11.2074 4.52614 11.4172C4.73591 11.627 4.87878 11.8942 4.93665 12.1852C4.99453 12.4762 4.96483 12.7778 4.85129 13.0519C4.73776 13.326 4.5455 13.5602 4.29883 13.725C4.05216 13.8899 3.76215 13.9778 3.46548 13.9778C3.06765 13.9778 2.68612 13.8198 2.40482 13.5385C2.12351 13.2572 1.96548 12.8757 1.96548 12.4778Z" fill="white"/>
<path d="M3.46548 6.00684H18.0745C18.1984 6.61386 18.5433 7.15325 19.0423 7.52044C19.5413 7.88763 20.1588 8.05645 20.7752 7.99418C21.3916 7.93191 21.963 7.64299 22.3784 7.18342C22.7939 6.72385 23.024 6.12638 23.024 5.50684C23.024 4.8873 22.7939 4.28983 22.3784 3.83026C21.963 3.3707 21.3916 3.08177 20.7752 3.0195C20.1588 2.95723 19.5413 3.12606 19.0423 3.49324C18.5433 3.86043 18.1984 4.39982 18.0745 5.00684H3.46548C3.33287 5.00684 3.20569 5.05952 3.11192 5.15329C3.01815 5.24706 2.96548 5.37423 2.96548 5.50684C2.96548 5.63945 3.01815 5.76663 3.11192 5.86039C3.20569 5.95416 3.33287 6.00684 3.46548 6.00684ZM20.5235 4.00684C20.8201 4.00684 21.1102 4.09482 21.3568 4.25964C21.6035 4.42446 21.7958 4.65873 21.9093 4.93282C22.0228 5.20691 22.0525 5.50851 21.9947 5.79948C21.9368 6.09045 21.7939 6.35772 21.5841 6.5675C21.3744 6.77728 21.1071 6.92014 20.8161 6.97802C20.5251 7.0359 20.2235 7.00619 19.9494 6.89266C19.6754 6.77913 19.4411 6.58687 19.2763 6.3402C19.1114 6.09352 19.0235 5.80351 19.0235 5.50684C19.0235 5.10902 19.1815 4.72749 19.4628 4.44618C19.7441 4.16488 20.1257 4.00684 20.5235 4.00684Z" fill="white"/>
</svg>
