<svg width="24" height="24" viewBox="0 0 24 24" fill="none" xmlns="http://www.w3.org/2000/svg">
<path d="M13.2476 20.019C13.2721 19.0315 13.6644 18.0885 14.3476 17.375C15.042 16.6115 15.9627 16.0906 16.9746 15.8882C17.2381 15.8359 17.506 15.8093 17.7746 15.8091C18.5319 15.7939 19.271 16.0409 19.8666 16.5088V10.1211L10.7176 6.37695V14.144C10.7377 14.2882 10.7477 14.4336 10.7476 14.5791C10.7228 15.5663 10.3306 16.5088 9.64765 17.2222C8.95291 17.9854 8.03249 18.5066 7.02064 18.71C6.75713 18.7619 6.48924 18.7885 6.22065 18.7891C5.82016 18.816 5.41839 18.76 5.04038 18.625C4.66238 18.49 4.31621 18.2789 4.02339 18.0044C3.73056 17.7299 3.49732 17.3978 3.33824 17.0293C3.17915 16.6608 3.0976 16.2632 3.09864 15.8618C3.12322 14.8742 3.51549 13.9314 4.19865 13.2178C4.89353 12.4549 5.81391 11.9341 6.82563 11.731C7.08909 11.6786 7.35705 11.6521 7.62565 11.6519C8.38289 11.6367 9.12203 11.8842 9.71763 12.3521V5.67578C9.71429 5.64253 9.71429 5.60942 9.71763 5.57617V1.56201C9.71767 1.49059 9.73303 1.41997 9.76264 1.35498L9.76866 1.3418L9.77665 1.32715C9.83454 1.2208 9.92905 1.1391 10.0426 1.09717L10.0606 1.09082H10.0657L10.0866 1.08496H10.2637C10.3176 1.09027 10.3703 1.10445 10.4197 1.12695L20.5267 5.26318C20.6149 5.2934 20.693 5.34764 20.752 5.41992C20.8111 5.4922 20.8487 5.57932 20.8606 5.67188V5.69189C20.8606 5.69789 20.8606 5.70396 20.8606 5.70996C20.8606 5.71596 20.8606 5.70982 20.8606 5.71582C20.8606 5.72182 20.8606 5.72786 20.8606 5.73486V18.3159C20.8807 18.46 20.8907 18.6055 20.8906 18.751C20.8646 19.7391 20.4701 20.6819 19.7846 21.394C19.0905 22.157 18.1708 22.6781 17.1596 22.8818C16.8961 22.9334 16.6282 22.96 16.3596 22.9609C15.9587 22.9865 15.5568 22.9291 15.1789 22.7925C14.8011 22.6559 14.4554 22.443 14.1635 22.167C13.8715 21.891 13.6395 21.5581 13.4819 21.1885C13.3244 20.8189 13.2446 20.4208 13.2476 20.019ZM17.1697 16.8701C16.3687 17.0314 15.6405 17.4446 15.0917 18.0498C14.5754 18.5783 14.2748 19.2807 14.2486 20.019C14.2502 20.288 14.3078 20.5538 14.4176 20.7993C14.5273 21.0448 14.687 21.2644 14.8864 21.4448C15.0857 21.6253 15.3205 21.7623 15.5757 21.8472C15.8308 21.932 16.1009 21.9631 16.3686 21.938C16.5735 21.9374 16.7778 21.9169 16.9786 21.877C17.7798 21.7163 18.5082 21.3025 19.0567 20.6968C19.4953 20.2389 19.7826 19.6578 19.8796 19.0312C19.873 18.9983 19.8696 18.9647 19.8696 18.9312V18.376C19.7734 17.9039 19.5072 17.4837 19.1216 17.1948C18.736 16.906 18.2577 16.7687 17.7776 16.8091C17.5735 16.8094 17.3699 16.8305 17.1697 16.8701ZM7.02064 12.7178C6.21975 12.8792 5.49155 13.2928 4.94264 13.8979C4.42713 14.4251 4.12627 15.125 4.09864 15.8618C4.10037 16.1309 4.15805 16.397 4.26802 16.6426C4.37798 16.8881 4.53781 17.1081 4.73738 17.2886C4.93694 17.469 5.17184 17.6061 5.42719 17.6909C5.68255 17.7757 5.95277 17.8065 6.22065 17.7812C6.42509 17.7805 6.62898 17.7604 6.82963 17.7212C7.63072 17.5597 8.35899 17.1457 8.90763 16.54C9.34624 16.0822 9.63354 15.5006 9.73063 14.874C9.72395 14.8411 9.72062 14.8075 9.72065 14.7739V14.2192C9.62437 13.7472 9.35815 13.3264 8.97254 13.0376C8.58693 12.7488 8.10874 12.6115 7.62864 12.6519C7.42434 12.6536 7.22069 12.6763 7.02064 12.7178ZM19.8706 9.03809V6.05078L10.7216 2.30811V5.29395L19.8706 9.03809Z" fill="white"/>
</svg>
